<?xml version="1.0" standalone="no"?>
<!DOCTYPE svg PUBLIC "-//W3C//DTD SVG 20010904//EN"
 "http://www.w3.org/TR/2001/REC-SVG-20010904/DTD/svg10.dtd">
<svg version="1.0" xmlns="http://www.w3.org/2000/svg"
 width="500.000000pt" height="104.000000pt" viewBox="0 0 500.000000 104.000000"
 preserveAspectRatio="xMidYMid meet">

<g transform="translate(0.000000,104.000000) scale(0.100000,-0.100000)"
fill="#000000" stroke="none">
<path d="M268 815 c5 -61 -15 -105 -46 -105 -13 0 -24 -17 -40 -62 -12 -35
-22 -74 -22 -88 0 -72 -31 -97 -68 -54 -14 15 -22 35 -19 45 9 32 -8 21 -27
-18 -43 -89 -40 -147 14 -221 35 -49 37 -56 9 -49 -26 7 -11 -12 29 -35 l29
-17 -8 37 c-11 49 -39 159 -50 198 -5 17 -9 44 -9 60 l0 29 19 -31 c21 -34 61
-50 90 -35 14 8 20 27 24 78 9 100 23 141 50 145 25 3 59 63 51 91 -2 9 -7 27
-10 40 -9 29 66 -51 100 -108 29 -49 43 -91 27 -81 -12 8 -12 6 -13 -54 -1
-25 6 -47 17 -60 13 -14 15 -23 7 -33 -17 -20 1 -40 28 -32 22 7 22 6 15 -54
-6 -52 -5 -61 9 -61 20 0 20 -4 1 -40 -9 -17 -20 -41 -25 -55 -9 -23 -8 -24
16 -13 17 8 21 14 12 19 -9 6 -5 17 18 41 66 69 78 136 43 237 l-11 32 -20
-20 c-15 -17 -23 -19 -39 -11 -18 10 -19 18 -13 70 9 84 -17 133 -111 210 -40
33 -75 60 -78 60 -2 0 -2 -25 1 -55z"/>
<path d="M68 665 c-10 -13 -18 -34 -18 -47 0 -21 1 -21 16 -6 13 13 31 79 21
78 -1 0 -10 -11 -19 -25z m4 -27 c-7 -7 -12 -8 -12 -2 0 14 12 26 19 19 2 -3
-1 -11 -7 -17z"/>
</g>
</svg>
